<svg width="350" height="350" viewBox="0 0 350 350" fill="none" xmlns="http://www.w3.org/2000/svg">
<path d="M0 25C0 11.1929 11.1929 0 25 0H325C338.807 0 350 11.1929 350 25C350 38.8071 338.807 50 325 50H25C11.1929 50 0 38.8071 0 25Z" fill="white"/>
<path d="M0 325C0 311.193 11.1929 300 25 300H325C338.807 300 350 311.193 350 325C350 338.807 338.807 350 325 350H25C11.1929 350 0 338.807 0 325Z" fill="white"/>
<path d="M175 350C161.193 350 150 338.807 150 325V25C150 11.1929 161.193 0 175 0C188.807 0 200 11.1929 200 25V325C200 338.807 188.807 350 175 350Z" fill="white"/>
<path d="M7.67767 342.165C-2.08544 332.402 -2.08544 316.573 7.67767 306.81L306.077 8.41065C315.84 -1.35246 331.669 -1.35247 341.432 8.41064C351.195 18.1737 351.195 34.0029 341.432 43.766L43.033 342.165C33.2699 351.928 17.4408 351.928 7.67767 342.165Z" fill="white"/>
</svg>
